<svg width="72" height="118" viewBox="0 0 72 118" fill="none" xmlns="http://www.w3.org/2000/svg">
<path d="M14.2778 67.2558L38.2916 4.1962" stroke="#FFF8A9" stroke-width="2"/>
<path d="M37.7877 116.138L1.49492 60.6268" stroke="#FFF8A9" stroke-width="2"/>
<path d="M36.712 114.417L14.6931 66.7731" stroke="#FFF8A9" stroke-width="2"/>
<path d="M37.8737 114.159L37.6095 68.3723" stroke="#FFF8A9" stroke-width="2"/>
<path d="M2.35947 59.9451L38.6563 3.09787" stroke="#FFF8A9" stroke-width="2"/>
<path d="M37.1423 115.966L70.9003 66.8942" stroke="#FFF8A9" stroke-width="2"/>
<path d="M56.6739 56.7253L38.1335 4.40685" stroke="#FFF8A9" stroke-width="2"/>
<path d="M71.0139 56.7256L38.6262 4.14408" stroke="#FFF8A9" stroke-width="2"/>
<path d="M1.08675 60.2828L14.7906 66.8896" stroke="#FFF8A9" stroke-width="2"/>
<line x1="17.0034" y1="59.4532" x2="38.0034" y2="68.4532" stroke="#FFF8A9" stroke-width="2"/>
<line x1="37.0755" y1="68.5268" x2="56.0755" y2="56.5268" stroke="#FFF8A9" stroke-width="2"/>
<path d="M56.3644 56.3961L70.3916 66.8094" stroke="#FFF8A9" stroke-width="2"/>
<path d="M70.8672 56.1836L70.7227 67.4531" stroke="#FFF8A9" stroke-width="2"/>
<path d="M38.1095 115.372L37.4446 116.474L36.6818 115.354" stroke="#FFF8A9"/>
<line x1="23.7851" y1="69.9041" x2="31.7851" y2="72.9042" stroke="#FFF8A9"/>
<path d="M20.8762 65.6559L32.8763 70.6559M35.1096 51.8723L50.7533 41.9803M19.1976 56.1001L49.2532 37.4803M9.1757 63.4774L29.2194 26.9289M55.7344 52.7148L59.2475 41.3843M59.1094 50.8724L60.9998 43.7701M29.9658 44.2643L38.1095 39.3723" stroke="#FFF8A9"/>
<line x1="51.1014" y1="69.2829" x2="53.1014" y2="80.2829" stroke="#FFF8A9"/>
<path d="M46.2923 63.2739L51.9533 93.8559" stroke="#FFF8A9"/>
</svg>
